<?xml version="1.0" encoding="UTF-8" standalone="no"?>
<!-- Created with Inkscape (http://www.inkscape.org/) -->

<svg
   xmlns:dc="http://purl.org/dc/elements/1.1/"
   xmlns:cc="http://creativecommons.org/ns#"
   xmlns:rdf="http://www.w3.org/1999/02/22-rdf-syntax-ns#"
   xmlns:svg="http://www.w3.org/2000/svg"
   xmlns="http://www.w3.org/2000/svg"
   xmlns:sodipodi="http://sodipodi.sourceforge.net/DTD/sodipodi-0.dtd"
   xmlns:inkscape="http://www.inkscape.org/namespaces/inkscape"
   width="133.01427mm"
   height="31.344275mm"
   viewBox="0 0 471.31039 111.06239"
   id="svg2"
   version="1.1"
   inkscape:version="0.91 r13725"
   sodipodi:docname="project-logo-3.svg">
  <defs
     id="defs4" />
  <sodipodi:namedview
     id="base"
     pagecolor="#ffffff"
     bordercolor="#666666"
     borderopacity="1.0"
     inkscape:pageopacity="0.0"
     inkscape:pageshadow="2"
     inkscape:zoom="2.8401997"
     inkscape:cx="150.24945"
     inkscape:cy="67.983554"
     inkscape:document-units="px"
     inkscape:current-layer="layer2"
     showgrid="false"
     showguides="false"
     inkscape:guide-bbox="true"
     inkscape:window-width="1536"
     inkscape:window-height="841"
     inkscape:window-x="-8"
     inkscape:window-y="-8"
     inkscape:window-maximized="1"
     fit-margin-top="0"
     fit-margin-left="0"
     fit-margin-right="0"
     fit-margin-bottom="0">
    <sodipodi:guide
       position="26.881833,86.921917"
       orientation="1,0"
       id="guide3347"
       inkscape:label=""
       inkscape:color="rgb(0,0,255)" />
    <sodipodi:guide
       position="13.100241,99.826617"
       orientation="0.70710678,0.70710678"
       id="guide3349"
       inkscape:label=""
       inkscape:color="rgb(0,0,255)" />
    <sodipodi:guide
       position="43.881833,82.856057"
       orientation="1,0"
       id="guide3351"
       inkscape:label=""
       inkscape:color="rgb(0,0,255)" />
    <sodipodi:guide
       position="59.881834,57.046659"
       orientation="1,0"
       id="guide3353"
       inkscape:label=""
       inkscape:color="rgb(0,0,255)" />
    <sodipodi:guide
       position="25.288083,83.905257"
       orientation="0.70710678,0.70710678"
       id="guide3356"
       inkscape:label=""
       inkscape:color="rgb(0,0,255)" />
    <sodipodi:guide
       position="76.881834,106.36736"
       orientation="1,0"
       id="guide3358"
       inkscape:label=""
       inkscape:color="rgb(0,0,255)" />
    <sodipodi:guide
       position="92.881832,111.05194"
       orientation="1,0"
       id="guide3360"
       inkscape:label=""
       inkscape:color="rgb(0,0,255)" />
    <sodipodi:guide
       position="109.88183,115.64813"
       orientation="1,0"
       id="guide3362"
       inkscape:label=""
       inkscape:color="rgb(0,0,255)" />
    <sodipodi:guide
       position="26.881833,86.045027"
       orientation="0,1"
       id="guide3364" />
    <sodipodi:guide
       position="110.08496,1.1826115"
       orientation="0,1"
       id="guide4300" />
    <sodipodi:guide
       position="37.827146,51.178699"
       orientation="0,1"
       id="guide3400" />
    <sodipodi:guide
       position="116.86816,51.178699"
       orientation="1,0"
       id="guide3402" />
  </sodipodi:namedview>
  <metadata
     id="metadata7">
    <rdf:RDF>
      <cc:Work
         rdf:about="">
        <dc:format>image/svg+xml</dc:format>
        <dc:type
           rdf:resource="http://purl.org/dc/dcmitype/StillImage" />
        <dc:title></dc:title>
      </cc:Work>
    </rdf:RDF>
  </metadata>
  <g
     inkscape:groupmode="layer"
     id="layer2"
     inkscape:label="Layer 2"
     style="display:inline"
     transform="translate(-11.118166,-287.17383)">
    <path
       style="color:#000000;clip-rule:nonzero;display:inline;overflow:visible;visibility:visible;opacity:1;isolation:auto;mix-blend-mode:normal;color-interpolation:sRGB;color-interpolation-filters:linearRGB;solid-color:#000000;solid-opacity:1;fill:#404041;fill-opacity:1;fill-rule:evenodd;stroke:none;stroke-width:1px;stroke-linecap:butt;stroke-linejoin:miter;stroke-miterlimit:4;stroke-dasharray:none;stroke-dashoffset:0;stroke-opacity:1;color-rendering:auto;image-rendering:auto;shape-rendering:auto;text-rendering:auto;enable-background:accumulate"
       d="m 63,287.17383 c -13.807119,0 -25,11.2085 -25,25.01562 1.251914,1.25365 15.217446,15.21962 17,17 l 0,-17.05273 0,-0.0215 c 0,-4.41828 3.581722,-8 8,-8 4.418278,0 8,3.58172 8,8 l -0.002,0.0215 0.002,0 0,0.0371 0,12.6914 0,10.96875 c 0,0 0.002,0 0.002,0 l 0.002,9.36524 16.996,16.9961 0,-26.36914 0,-10.96094 0,-12.6914 0,-0.0371 0,-0.0215 c 0,-4.41828 3.581722,-8 8,-8 4.41828,0 8,3.58172 8,8 l -0.002,0.0215 0.002,0 0,0.0527 0,23.64453 c 5.8e-4,-1.9e-4 0.001,2e-4 0.002,0 l 0.002,42.35743 16.996,16.99611 0,-82.99805 c 1e-5,-0.005 -1e-5,-0.0104 0,-0.0156 0,-13.80712 -11.19288,-25 -25,-25 -6.08001,0.008 -11.948757,2.23126 -16.507812,6.2539 C 74.937171,289.40865 69.074626,287.18555 63,287.17383 Z"
       id="path3370"
       inkscape:connector-curvature="0" />
    <path
       inkscape:connector-curvature="0"
       style="color:#000000;clip-rule:nonzero;display:inline;overflow:visible;visibility:visible;opacity:1;isolation:auto;mix-blend-mode:normal;color-interpolation:sRGB;color-interpolation-filters:linearRGB;solid-color:#000000;solid-opacity:1;fill:#274c72;fill-opacity:1;fill-rule:evenodd;stroke:none;stroke-width:1px;stroke-linecap:butt;stroke-linejoin:miter;stroke-miterlimit:4;stroke-dasharray:none;stroke-dashoffset:0;stroke-opacity:1;color-rendering:auto;image-rendering:auto;shape-rendering:auto;text-rendering:auto;enable-background:accumulate"
       d="m 11.118166,339.05194 c 0,-13.80712 11.2085,-25 25.01562,-25 1.25365,1.25192 15.21962,15.21745 17,17 l -17.05273,0 -0.0215,0 c -4.41828,0 -8,3.58173 -8,8 0,4.41828 3.58172,8 8,8 l 0.0215,-0.002 0,0.002 0.0371,0 12.6914,0 10.96875,0 c 0,0 0,0.002 0,0.002 l 9.36524,0.002 16.996104,16.996 -26.369144,0 -10.96094,0 -12.6914,0 -0.0371,0 -0.0215,0 c -4.41828,0 -8,3.58173 -8,8 0,4.41828 3.58172,8 8,8 l 0.0215,-0.002 0,0.002 0.0527,0 23.64453,0 c -1.9e-4,5.8e-4 2e-4,10e-4 0,0.002 l 42.357434,0.002 16.99611,16.996 -82.998054,0 c -0.005,10e-6 -0.0104,-10e-6 -0.0156,0 -13.80712,0 -25,-11.19288 -25,-25 0.008,-6.08001 2.23126,-11.94875 6.2539,-16.50781 -4.0191,-4.55502 -6.2422,-10.41756 -6.25392,-16.49219 z"
       id="path3370-4" />
    <path
       inkscape:connector-curvature="0"
       id="path3469"
       style="font-style:normal;font-variant:normal;font-weight:normal;font-stretch:normal;font-size:60px;line-height:100%;font-family:Righteous;-inkscape-font-specification:'Righteous, Normal';text-align:start;letter-spacing:0px;word-spacing:0px;writing-mode:lr-tb;text-anchor:start;fill:#404041;fill-opacity:1;stroke:none;stroke-width:1px;stroke-linecap:butt;stroke-linejoin:miter;stroke-opacity:1"
       d="m 163.95701,339.31315 -34.08133,0 0,-49.71783 34.08133,0 0,9.95049 -24.13082,0 0,9.95051 16.32991,0 0,9.9505 -16.32991,0 0,9.91583 24.13082,0 0,9.9505 z" />
    <path
       inkscape:connector-curvature="0"
       id="path3471"
       style="font-style:normal;font-variant:normal;font-weight:normal;font-stretch:normal;font-size:60px;line-height:100%;font-family:Righteous;-inkscape-font-specification:'Righteous, Normal';text-align:start;letter-spacing:0px;word-spacing:0px;writing-mode:lr-tb;text-anchor:start;fill:#404041;fill-opacity:1;stroke:none;stroke-width:1px;stroke-linecap:butt;stroke-linejoin:miter;stroke-opacity:1"
       d="m 192.85388,339.31315 -9.91582,0 0,-39.76734 -14.9431,0 0,-9.95049 39.76734,0 0,9.95049 -14.90842,0 0,39.76734 z" />
    <path
       inkscape:connector-curvature="0"
       id="path3473"
       style="font-style:normal;font-variant:normal;font-weight:normal;font-stretch:normal;font-size:60px;line-height:100%;font-family:Righteous;-inkscape-font-specification:'Righteous, Normal';text-align:start;letter-spacing:0px;word-spacing:0px;writing-mode:lr-tb;text-anchor:start;fill:#404041;fill-opacity:1;stroke:none;stroke-width:1px;stroke-linecap:butt;stroke-linejoin:miter;stroke-opacity:1"
       d="m 240.83818,319.44682 0,-9.9505 q 0,-2.04558 -0.79743,-3.84846 -0.76275,-1.83754 -2.11492,-3.1897 -1.35216,-1.35216 -3.1897,-2.11492 -1.80288,-0.79743 -3.84846,-0.79743 -2.04557,0 -3.88312,0.79743 -1.80287,0.76276 -3.15503,2.11492 -1.35216,1.35216 -2.14959,3.1897 -0.76276,1.80288 -0.76276,3.84846 l 0,9.9505 19.90101,0 z m 9.9505,19.86633 -9.9505,0 0,-9.9505 -19.90101,0 0,9.9505 -9.91582,0 0,-29.81683 q 0,-4.12582 1.56017,-7.73158 1.56019,-3.64043 4.22983,-6.34473 2.70433,-2.70433 6.31008,-4.26451 3.64043,-1.56018 7.76624,-1.56018 4.12582,0 7.73158,1.56018 3.64043,1.56018 6.34475,4.26451 2.70431,2.7043 4.26449,6.34473 1.56019,3.60576 1.56019,7.73158 l 0,29.81683 z" />
    <path
       inkscape:connector-curvature="0"
       id="path3475"
       style="font-style:normal;font-variant:normal;font-weight:normal;font-stretch:normal;font-size:60px;line-height:100%;font-family:Righteous;-inkscape-font-specification:'Righteous, Normal';text-align:start;letter-spacing:0px;word-spacing:0px;writing-mode:lr-tb;text-anchor:start;fill:#404041;fill-opacity:1;stroke:none;stroke-width:1px;stroke-linecap:butt;stroke-linejoin:miter;stroke-opacity:1"
       d="m 298.62353,314.45423 q 0,3.4324 -0.90144,6.62211 -0.86677,3.15504 -2.4963,5.9287 -1.62952,2.73898 -3.88312,5.02726 -2.25359,2.25359 -5.02725,3.88312 -2.77366,1.62952 -5.96338,2.53096 -3.15503,0.86677 -6.58743,0.86677 l -14.97775,0 0,-49.71783 14.97775,0 q 3.4324,0 6.58743,0.90144 3.18972,0.86676 5.96338,2.49628 2.77366,1.62954 5.02725,3.9178 2.2536,2.2536 3.88312,5.02726 1.62953,2.73898 2.4963,5.92869 0.90144,3.15504 0.90144,6.58744 z m -9.95051,0 q 0,-3.08569 -1.1788,-5.79001 -1.14414,-2.70431 -3.1897,-4.71522 -2.01091,-2.04557 -4.7499,-3.22437 -2.70431,-1.17882 -5.79001,-1.17882 l -4.95792,0 0,29.81684 4.95792,0 q 3.0857,0 5.79001,-1.14414 2.73899,-1.1788 4.7499,-3.1897 2.04556,-2.04558 3.1897,-4.74989 1.1788,-2.73899 1.1788,-5.82469 z" />
    <path
       inkscape:connector-curvature="0"
       id="path3477"
       style="font-style:normal;font-variant:normal;font-weight:normal;font-stretch:normal;font-size:60px;line-height:100%;font-family:Righteous;-inkscape-font-specification:'Righteous, Normal';text-align:start;letter-spacing:0px;word-spacing:0px;writing-mode:lr-tb;text-anchor:start;fill:#404041;fill-opacity:1;stroke:none;stroke-width:1px;stroke-linecap:butt;stroke-linejoin:miter;stroke-opacity:1"
       d="m 333.66487,319.44682 0,-9.9505 q 0,-2.04558 -0.79742,-3.84846 -0.76277,-1.83754 -2.11492,-3.1897 -1.35216,-1.35216 -3.18971,-2.11492 -1.80287,-0.79743 -3.84845,-0.79743 -2.04557,0 -3.88312,0.79743 -1.80288,0.76276 -3.15503,2.11492 -1.35216,1.35216 -2.14959,3.1897 -0.76276,1.80288 -0.76276,3.84846 l 0,9.9505 19.901,0 z m 9.9505,19.86633 -9.9505,0 0,-9.9505 -19.901,0 0,9.9505 -9.91583,0 0,-29.81683 q 0,-4.12582 1.56018,-7.73158 1.56019,-3.64043 4.22983,-6.34473 2.70432,-2.70433 6.31007,-4.26451 3.64043,-1.56018 7.76625,-1.56018 4.12582,0 7.73157,1.56018 3.64044,1.56018 6.34474,4.26451 2.70433,2.7043 4.26451,6.34473 1.56018,3.60576 1.56018,7.73158 l 0,29.81683 z" />
    <path
       inkscape:connector-curvature="0"
       id="path3479"
       style="font-style:normal;font-variant:normal;font-weight:normal;font-stretch:normal;font-size:60px;line-height:100%;font-family:Righteous;-inkscape-font-specification:'Righteous, Normal';text-align:start;letter-spacing:0px;word-spacing:0px;writing-mode:lr-tb;text-anchor:start;fill:#404041;fill-opacity:1;stroke:none;stroke-width:1px;stroke-linecap:butt;stroke-linejoin:miter;stroke-opacity:1"
       d="m 372.36818,339.31315 -9.91584,0 0,-39.76734 -14.94308,0 0,-9.95049 39.76733,0 0,9.95049 -14.90841,0 0,39.76734 z" />
    <path
       inkscape:connector-curvature="0"
       id="path3481"
       style="font-style:normal;font-variant:normal;font-weight:normal;font-stretch:normal;font-size:60px;line-height:100%;font-family:Righteous;-inkscape-font-specification:'Righteous, Normal';text-align:start;letter-spacing:0px;word-spacing:0px;writing-mode:lr-tb;text-anchor:start;fill:#404041;fill-opacity:1;stroke:none;stroke-width:1px;stroke-linecap:butt;stroke-linejoin:miter;stroke-opacity:1"
       d="m 420.98731,319.44682 0,-9.9505 q 0,-2.04558 -0.79743,-3.84846 -0.76276,-1.83754 -2.11492,-3.1897 -1.35216,-1.35216 -3.1897,-2.11492 -1.80288,-0.79743 -3.84845,-0.79743 -2.04558,0 -3.88312,0.79743 -1.80288,0.76276 -3.15504,2.11492 -1.35216,1.35216 -2.14958,3.1897 -0.76277,1.80288 -0.76277,3.84846 l 0,9.9505 19.90101,0 z m 9.95049,19.86633 -9.95049,0 0,-9.9505 -19.90101,0 0,9.9505 -9.91582,0 0,-29.81683 q 0,-4.12582 1.56018,-7.73158 1.56019,-3.64043 4.22983,-6.34473 2.70431,-2.70433 6.31008,-4.26451 3.64042,-1.56018 7.76624,-1.56018 4.12582,0 7.73157,1.56018 3.64043,1.56018 6.34475,4.26451 2.70431,2.7043 4.26449,6.34473 1.56018,3.60576 1.56018,7.73158 l 0,29.81683 z" />
    <text
       xml:space="preserve"
       style="font-style:normal;font-weight:normal;font-size:40px;line-height:125%;font-family:sans-serif;letter-spacing:0px;word-spacing:0px;fill:#000000;fill-opacity:1;stroke:none;stroke-width:1px;stroke-linecap:butt;stroke-linejoin:miter;stroke-opacity:1"
       x="257.03125"
       y="334.39346"
       id="text4351"
       sodipodi:linespacing="125%"><tspan
         sodipodi:role="line"
         id="tspan4353"
         x="257.03125"
         y="334.39346" /></text>
    <path
       inkscape:connector-curvature="0"
       id="path3444"
       style="font-style:normal;font-variant:normal;font-weight:normal;font-stretch:normal;font-size:68.65572357px;line-height:100%;font-family:Righteous;-inkscape-font-specification:'Righteous, Normal';text-align:start;letter-spacing:0px;word-spacing:0px;writing-mode:lr-tb;text-anchor:start;fill:#274c72;fill-opacity:1;stroke:none;stroke-width:1px;stroke-linecap:butt;stroke-linejoin:miter;stroke-opacity:1"
       d="m 171.49956,397.197 -11.66611,0 -9.25244,-15.52129 -9.28595,15.52129 -11.59906,0 14.75025,-24.03621 -14.75025,-24.0362 11.59906,0 9.28595,15.52129 9.25244,-15.52129 11.66611,0 -14.75026,24.0362 14.75026,24.03621 z" />
    <path
       inkscape:connector-curvature="0"
       id="path3446"
       style="font-style:normal;font-variant:normal;font-weight:normal;font-stretch:normal;font-size:68.65572357px;line-height:100%;font-family:Righteous;-inkscape-font-specification:'Righteous, Normal';text-align:start;letter-spacing:0px;word-spacing:0px;writing-mode:lr-tb;text-anchor:start;fill:#274c72;fill-opacity:1;stroke:none;stroke-width:1px;stroke-linecap:butt;stroke-linejoin:miter;stroke-opacity:1"
       d="m 197.93316,397.197 -9.58767,0 0,-38.45123 -14.44854,0 0,-9.62118 38.45123,0 0,9.62118 -14.41502,0 0,38.45123 z" />
    <path
       inkscape:connector-curvature="0"
       id="path3448"
       style="font-style:normal;font-variant:normal;font-weight:normal;font-stretch:normal;font-size:68.65572357px;line-height:100%;font-family:Righteous;-inkscape-font-specification:'Righteous, Normal';text-align:start;letter-spacing:0px;word-spacing:0px;writing-mode:lr-tb;text-anchor:start;fill:#274c72;fill-opacity:1;stroke:none;stroke-width:1px;stroke-linecap:butt;stroke-linejoin:miter;stroke-opacity:1"
       d="m 227.06491,358.74577 0,19.24238 9.62118,0 q 1.97788,0 3.72109,-0.73751 1.74321,-0.77104 3.05062,-2.07845 1.30741,-1.30741 2.04492,-3.05062 0.77104,-1.77673 0.77104,-3.75461 0,-1.97787 -0.77104,-3.72108 -0.73751,-1.77674 -2.04492,-3.08415 -1.30741,-1.30741 -3.05062,-2.04492 -1.74321,-0.77104 -3.72109,-0.77104 l -9.62118,0 z m 0,38.45123 -9.62119,0 0,-48.07241 19.24237,0 q 2.64834,0 5.09555,0.70399 2.4472,0.67046 4.55916,1.94435 2.1455,1.24036 3.88871,3.01709 1.77673,1.74322 3.01709,3.88871 1.27389,2.14549 1.94436,4.59269 0.70399,2.4472 0.70399,5.09554 0,2.48073 -0.63695,4.82736 -0.60342,2.34663 -1.77673,4.4586 -1.13979,2.11197 -2.81596,3.8887 -1.67616,1.77674 -3.75461,3.08414 l 5.33021,12.57124 -10.22461,0 -4.19041,-9.68823 -10.76098,0.067 0,9.62119 z" />
    <path
       inkscape:connector-curvature="0"
       id="path3450"
       style="font-style:normal;font-variant:normal;font-weight:normal;font-stretch:normal;font-size:68.65572357px;line-height:100%;font-family:Righteous;-inkscape-font-specification:'Righteous, Normal';text-align:start;letter-spacing:0px;word-spacing:0px;writing-mode:lr-tb;text-anchor:start;fill:#274c72;fill-opacity:1;stroke:none;stroke-width:1px;stroke-linecap:butt;stroke-linejoin:miter;stroke-opacity:1"
       d="m 290.17243,377.98815 0,-9.62119 q 0,-1.97787 -0.77104,-3.72108 -0.73751,-1.77674 -2.04492,-3.08415 -1.30741,-1.30741 -3.08414,-2.04492 -1.74322,-0.77104 -3.72109,-0.77104 -1.97788,0 -3.75461,0.77104 -1.74321,0.73751 -3.05062,2.04492 -1.30741,1.30741 -2.07845,3.08415 -0.73751,1.74321 -0.73751,3.72108 l 0,9.62119 19.24238,0 z m 9.62118,19.20885 -9.62118,0 0,-9.62119 -19.24238,0 0,9.62119 -9.58766,0 0,-28.83004 q 0,-3.98927 1.50855,-7.47569 1.50854,-3.51995 4.08984,-6.13477 2.61482,-2.61482 6.10124,-4.12336 3.51995,-1.50855 7.50922,-1.50855 3.98927,0 7.4757,1.50855 3.51994,1.50854 6.13476,4.12336 2.61482,2.61482 4.12337,6.13477 1.50854,3.48642 1.50854,7.47569 l 0,28.83004 z" />
    <path
       inkscape:connector-curvature="0"
       id="path3452"
       style="font-style:normal;font-variant:normal;font-weight:normal;font-stretch:normal;font-size:68.65572357px;line-height:100%;font-family:Righteous;-inkscape-font-specification:'Righteous, Normal';text-align:start;letter-spacing:0px;word-spacing:0px;writing-mode:lr-tb;text-anchor:start;fill:#274c72;fill-opacity:1;stroke:none;stroke-width:1px;stroke-linecap:butt;stroke-linejoin:miter;stroke-opacity:1"
       d="m 345.46882,392.26908 q -3.35233,2.883 -7.50922,4.42507 -4.15688,1.54207 -8.61548,1.54207 -3.41938,0 -6.60409,-0.90512 -3.15119,-0.87161 -5.93363,-2.48073 -2.74891,-1.64264 -5.02849,-3.92223 -2.27959,-2.27958 -3.92223,-5.02849 -1.60912,-2.78243 -2.51425,-5.93363 -0.8716,-3.18471 -0.8716,-6.60409 0,-3.41937 0.8716,-6.60409 0.90513,-3.18471 2.51425,-5.93362 1.64264,-2.78243 3.92223,-5.06202 2.27958,-2.27958 5.02849,-3.8887 2.78244,-1.64264 5.93363,-2.51425 3.18471,-0.90513 6.60409,-0.90513 4.4586,0 8.61548,1.54207 4.15689,1.50855 7.50922,4.42508 l -5.09554,8.38082 q -2.11197,-2.27958 -4.99497,-3.48642 -2.883,-1.24036 -6.03419,-1.24036 -3.18472,0 -5.96715,1.20684 -2.78244,1.20684 -4.86088,3.28528 -2.07845,2.04492 -3.28528,4.86088 -1.20684,2.78243 -1.20684,5.93362 0,3.15119 1.20684,5.93363 1.20683,2.74891 3.28528,4.82735 2.07844,2.07845 4.86088,3.28529 2.78243,1.20684 5.96715,1.20684 3.15119,0 6.03419,-1.20684 2.883,-1.24036 4.99497,-3.51995 l 5.09554,8.38083 z" />
    <path
       inkscape:connector-curvature="0"
       id="path3454"
       style="font-style:normal;font-variant:normal;font-weight:normal;font-stretch:normal;font-size:68.65572357px;line-height:100%;font-family:Righteous;-inkscape-font-specification:'Righteous, Normal';text-align:start;letter-spacing:0px;word-spacing:0px;writing-mode:lr-tb;text-anchor:start;fill:#274c72;fill-opacity:1;stroke:none;stroke-width:1px;stroke-linecap:butt;stroke-linejoin:miter;stroke-opacity:1"
       d="m 373.0087,397.197 -9.58767,0 0,-38.45123 -14.44854,0 0,-9.62118 38.45123,0 0,9.62118 -14.41502,0 0,38.45123 z" />
    <path
       inkscape:connector-curvature="0"
       id="path3456"
       style="font-style:normal;font-variant:normal;font-weight:normal;font-stretch:normal;font-size:68.65572357px;line-height:100%;font-family:Righteous;-inkscape-font-specification:'Righteous, Normal';text-align:start;letter-spacing:0px;word-spacing:0px;writing-mode:lr-tb;text-anchor:start;fill:#274c72;fill-opacity:1;stroke:none;stroke-width:1px;stroke-linecap:butt;stroke-linejoin:miter;stroke-opacity:1"
       d="m 437.50734,373.36193 q 0,3.41938 -0.90513,6.60409 -0.8716,3.1512 -2.48072,5.93363 -1.60912,2.74891 -3.8887,5.02849 -2.27959,2.27959 -5.0285,3.92223 -2.74891,1.60912 -5.93362,2.48073 -3.18472,0.90512 -6.60409,0.90512 -3.41938,0 -6.60409,-0.90512 -3.1512,-0.87161 -5.93363,-2.48073 -2.74891,-1.64264 -5.02849,-3.92223 -2.27959,-2.27958 -3.92223,-5.02849 -1.60912,-2.78243 -2.51425,-5.93363 -0.8716,-3.18471 -0.8716,-6.60409 0,-3.41937 0.8716,-6.60409 0.90513,-3.18471 2.51425,-5.93362 1.64264,-2.74891 3.92223,-5.0285 2.27958,-2.27958 5.02849,-3.8887 2.78243,-1.60912 5.93363,-2.48072 3.18471,-0.90513 6.60409,-0.90513 3.41937,0 6.60409,0.90513 3.18471,0.8716 5.93362,2.48072 2.74891,1.60912 5.0285,3.8887 2.27958,2.27959 3.8887,5.0285 1.60912,2.74891 2.48072,5.93362 0.90513,3.18472 0.90513,6.60409 z m -9.55414,0 q 0,-3.15119 -1.20684,-5.93362 -1.20684,-2.81596 -3.28528,-4.86088 -2.04492,-2.07844 -4.86088,-3.28528 -2.78243,-1.20684 -5.93362,-1.20684 -3.18472,0 -5.96715,1.20684 -2.78244,1.20684 -4.86088,3.28528 -2.07845,2.04492 -3.28528,4.86088 -1.20684,2.78243 -1.20684,5.93362 0,3.15119 1.20684,5.93363 1.20683,2.74891 3.28528,4.82735 2.07844,2.07845 4.86088,3.28529 2.78243,1.20684 5.96715,1.20684 3.15119,0 5.93362,-1.20684 2.81596,-1.20684 4.86088,-3.28529 2.07844,-2.07844 3.28528,-4.82735 1.20684,-2.78244 1.20684,-5.93363 z" />
    <path
       inkscape:connector-curvature="0"
       id="path3458"
       style="font-style:normal;font-variant:normal;font-weight:normal;font-stretch:normal;font-size:68.65572357px;line-height:100%;font-family:Righteous;-inkscape-font-specification:'Righteous, Normal';text-align:start;letter-spacing:0px;word-spacing:0px;writing-mode:lr-tb;text-anchor:start;fill:#274c72;fill-opacity:1;stroke:none;stroke-width:1px;stroke-linecap:butt;stroke-linejoin:miter;stroke-opacity:1"
       d="m 453.59854,358.74577 0,19.24238 9.62119,0 q 1.97787,0 3.72109,-0.73751 1.74321,-0.77104 3.05062,-2.07845 1.30741,-1.30741 2.04492,-3.05062 0.77103,-1.77673 0.77103,-3.75461 0,-1.97787 -0.77103,-3.72108 -0.73751,-1.77674 -2.04492,-3.08415 -1.30741,-1.30741 -3.05062,-2.04492 -1.74322,-0.77104 -3.72109,-0.77104 l -9.62119,0 z m 0,38.45123 -9.62119,0 0,-48.07241 19.24238,0 q 2.64834,0 5.09554,0.70399 2.4472,0.67046 4.55917,1.94435 2.14549,1.24036 3.8887,3.01709 1.77674,1.74322 3.0171,3.88871 1.27389,2.14549 1.94435,4.59269 0.70399,2.4472 0.70399,5.09554 0,2.48073 -0.63694,4.82736 -0.60342,2.34663 -1.77674,4.4586 -1.13979,2.11197 -2.81595,3.8887 -1.67617,1.77674 -3.75461,3.08414 l 5.3302,12.57124 -10.2246,0 -4.19042,-9.68823 -10.76098,0.067 0,9.62119 z" />
  </g>
</svg>
